<svg width="14" height="13" viewBox="0 0 14 13" fill="none" xmlns="http://www.w3.org/2000/svg">
<path d="M13.1021 11.808C12.2982 10.3971 11.0429 9.2978 9.53837 8.68698C10.2866 8.12583 10.8393 7.34349 11.1181 6.45077C11.397 5.55806 11.3879 4.60023 11.0921 3.71297C10.7964 2.82571 10.229 2.05399 9.47024 1.50714C8.71152 0.960284 7.79997 0.666016 6.86472 0.666016C5.92946 0.666016 5.01791 0.960284 4.25919 1.50714C3.50048 2.05399 2.93305 2.82571 2.6373 3.71297C2.34154 4.60023 2.33245 5.55806 2.61132 6.45077C2.89018 7.34349 3.44286 8.12583 4.19106 8.68698C2.6865 9.2978 1.43124 10.3971 0.62736 11.808C0.577548 11.8881 0.544349 11.9774 0.529736 12.0706C0.515123 12.1638 0.519394 12.2589 0.542296 12.3504C0.565197 12.4419 0.606262 12.5279 0.663048 12.6032C0.719834 12.6785 0.791183 12.7416 0.872852 12.7888C0.954521 12.836 1.04484 12.8663 1.13845 12.8779C1.23206 12.8894 1.32704 12.8821 1.41774 12.8562C1.50845 12.8304 1.59303 12.7865 1.66645 12.7273C1.73988 12.6681 1.80065 12.5948 1.84516 12.5116C2.90759 10.6752 4.78384 9.57996 6.86472 9.57996C8.9456 9.57996 10.8218 10.6758 11.8843 12.5116C11.9807 12.6667 12.1337 12.7782 12.3109 12.8226C12.4881 12.8669 12.6756 12.8406 12.8337 12.7492C12.9919 12.6579 13.1083 12.5086 13.1584 12.3329C13.2085 12.1573 13.1883 11.969 13.1021 11.808ZM3.81581 5.12387C3.81581 4.52085 3.99463 3.93138 4.32965 3.42999C4.66466 2.9286 5.14084 2.53781 5.69795 2.30705C6.25507 2.07628 6.8681 2.0159 7.45953 2.13355C8.05096 2.25119 8.59422 2.54157 9.02062 2.96797C9.44702 3.39436 9.7374 3.93763 9.85504 4.52906C9.97268 5.12049 9.9123 5.73352 9.68154 6.29063C9.45078 6.84775 9.05999 7.32392 8.5586 7.65894C8.05721 7.99396 7.46773 8.17277 6.86472 8.17277C6.05638 8.17184 5.28142 7.85032 4.70984 7.27874C4.13827 6.70716 3.81674 5.9322 3.81581 5.12387Z" fill="white"/>
</svg>
